HIERARCHY
ROOT Hips
{
	OFFSET 0.000000 0.000000 0.000000
	CHANNELS 6 Xposition Yposition Zposition Xrotation Yrotation Zrotation
	JOINT LeftUpLeg_virtual
	{
		OFFSET 0.000000 0.000000 0.000000
		CHANNELS 3 Xrotation Yrotation Zrotation
		JOINT LeftUpLeg
		{
			OFFSET 13.026900 -6.336304 -1.092800
			CHANNELS 3 Xrotation Yrotation Zrotation
			JOINT LeftLeg
			{
				OFFSET 0.524474 -46.096886 9.782700
				CHANNELS 3 Xrotation Yrotation Zrotation
				JOINT LeftFoot
				{
					OFFSET -0.524474 -53.427422 -12.948200
					CHANNELS 3 Xrotation Yrotation Zrotation
					JOINT LeftToeBase
					{
						OFFSET 0.192200 -14.009700 16.364100
						CHANNELS 3 Xrotation Yrotation Zrotation
						JOINT LeftToe_End
						{
							OFFSET -1.784700 -0.561700 9.474800
							CHANNELS 3 Xrotation Yrotation Zrotation
							End Site
							{
								OFFSET 0 0 0
							}
						}
					}
				}
			}
		}
	}
	JOINT RightUpLeg_virtual
	{
		OFFSET 0.000000 0.000000 0.000000
		CHANNELS 3 Xrotation Yrotation Zrotation
		JOINT RightUpLeg
		{
			OFFSET -12.883000 -6.336304 -1.092800
			CHANNELS 3 Xrotation Yrotation Zrotation
			JOINT RightLeg
			{
				OFFSET -0.524587 -46.096825 9.782800
				CHANNELS 3 Xrotation Yrotation Zrotation
				JOINT RightFoot
				{
					OFFSET 0.524587 -53.427383 -12.948300
					CHANNELS 3 Xrotation Yrotation Zrotation
					JOINT RightToeBase
					{
						OFFSET -0.192200 -14.009700 16.364100
						CHANNELS 3 Xrotation Yrotation Zrotation
						JOINT RightToe_End
						{
							OFFSET 1.784700 -0.561700 9.474800
							CHANNELS 3 Xrotation Yrotation Zrotation
							End Site
							{
								OFFSET 0 0 0
							}
						}
					}
				}
			}
		}
	}
	JOINT Spine_virtual
	{
		OFFSET 0.000000 0.000000 0.000000
		CHANNELS 3 Xrotation Yrotation Zrotation
		JOINT Spine
		{
			OFFSET 0.072000 7.257294 -0.789700
			CHANNELS 3 Xrotation Yrotation Zrotation
			JOINT Spine1
			{
				OFFSET 0.000000 12.508769 -0.658067
				CHANNELS 3 Xrotation Yrotation Zrotation
				JOINT Spine1_split
				{
					OFFSET 0.000000 12.508769 -0.658067
					CHANNELS 3 Xrotation Yrotation Zrotation
					JOINT Spine2
					{
						OFFSET 0.000000 12.508769 -0.658067
						CHANNELS 3 Xrotation Yrotation Zrotation
						JOINT Neck_virtual
						{
							OFFSET 0.000000 0.000000 0.000000
							CHANNELS 3 Xrotation Yrotation Zrotation
							JOINT Neck
							{
								OFFSET 0.000000 14.033295 7.520400
								CHANNELS 3 Xrotation Yrotation Zrotation
								JOINT Head
								{
									OFFSET 0.000000 8.198502 5.703100
									CHANNELS 3 Xrotation Yrotation Zrotation
									JOINT HeadTop_End
									{
										OFFSET 0.000000 17.760803 13.332701
										CHANNELS 3 Xrotation Yrotation Zrotation
										End Site
										{
											OFFSET 0 0 0
										}
									}
								}
							}
						}
						JOINT LeftShoulder_virtual
						{
							OFFSET 0.000000 0.000000 0.000000
							CHANNELS 3 Xrotation Yrotation Zrotation
							JOINT LeftShoulder
							{
								OFFSET 6.292450 5.785301 -0.669000
								CHANNELS 3 Xrotation Yrotation Zrotation
								JOINT LeftShoulder_split
								{
									OFFSET 6.292450 5.785301 -0.669000
									CHANNELS 3 Xrotation Yrotation Zrotation
									JOINT LeftArm
									{
										OFFSET 13.907140 -6.093903 1.965100
										CHANNELS 3 Xrotation Yrotation Zrotation
										JOINT LeftForeArm
										{
											OFFSET 34.140198 0.000000 0.000000
											CHANNELS 3 Xrotation Yrotation Zrotation
											JOINT LeftHand
											{
												OFFSET 40.960209 0.000000 0.000000
												CHANNELS 3 Xrotation Yrotation Zrotation
												End Site
												{
													OFFSET 0 0 0
												}
											}
										}
									}
								}
							}
						}
						JOINT RightShoulder_virtual
						{
							OFFSET 0.000000 0.000000 0.000000
							CHANNELS 3 Xrotation Yrotation Zrotation
							JOINT RightShoulder
							{
								OFFSET -6.292450 5.785301 -0.669000
								CHANNELS 3 Xrotation Yrotation Zrotation
								JOINT RightShoulder_split
								{
									OFFSET -6.292450 5.785301 -0.669000
									CHANNELS 3 Xrotation Yrotation Zrotation
									JOINT RightArm
									{
										OFFSET -13.907140 -6.093903 1.965100
										CHANNELS 3 Xrotation Yrotation Zrotation
										JOINT RightForeArm
										{
											OFFSET -34.140198 0.000000 0.000000
											CHANNELS 3 Xrotation Yrotation Zrotation
											JOINT RightHand
											{
												OFFSET -40.960209 0.000000 0.000000
												CHANNELS 3 Xrotation Yrotation Zrotation
												End Site
												{
													OFFSET 0 0 0
												}
											}
										}
									}
								}
							}
						}
					}
				}
			}
		}
	}
}
MOTION
Frames: 4
Frame Time: 0.03333333
-3.122919 92.909439 3.768204 0.000000 0.000000 0.000000 5.023449 58.291061 -11.201245 -4.526598 6.794825 23.541290 48.108058 -10.205078 9.036826 -24.795812 7.232853 -17.145747 -8.884023 -0.335625 -1.007810 0.000000 0.000000 0.000000 7.475343 58.759776 -13.430023 -44.922154 12.163840 -19.954640 32.279184 5.750996 -2.756115 5.684211 7.956956 11.768559 -7.783053 -0.386771 1.008501 0.000000 0.000000 0.000000 5.221231 58.965570 -8.438114 0.974340 -3.083998 -2.367590 2.866506 -0.888567 -0.237766 1.381438 -0.363338 0.144390 0.000000 0.000000 0.000000 1.683493 -1.114229 -0.096530 -5.599927 -10.252835 -0.040377 -2.949006 -42.478138 5.977543 0.000000 0.000000 0.000000 1.625790 -1.137581 -0.416803 0.313265 -8.723099 -9.120119 -3.436272 0.855665 -2.190669 -2.207289 -43.270901 -50.785848 172.956113 -76.473489 173.051394 0.000000 0.000000 0.000000 2.486316 -0.882167 -0.308759 -0.037619 -1.545791 10.314793 -4.853253 6.313245 -0.085534 -24.073196 -8.665154 45.834422 -178.274180 67.116075 176.934862 0.000000 0.000000 0.000000 
-3.073560 96.598381 2.686726 0.000000 0.000000 0.000000 4.943302 56.201505 -11.058779 -4.800961 4.800708 23.454485 46.123707 -8.322620 7.917407 -19.898534 7.807500 -15.098960 -7.885100 -0.149883 -1.634381 0.000000 0.000000 0.000000 7.267480 55.773583 -12.683433 -43.771602 9.225105 -20.374871 28.060552 7.044855 -2.686069 7.657732 10.321253 14.813038 -9.536546 0.001566 0.498720 0.000000 0.000000 0.000000 5.472084 56.186915 -8.644978 0.433436 -3.256119 -1.892677 2.600444 -0.896011 -0.141113 1.471988 -0.514808 0.121102 0.000000 0.000000 0.000000 2.139249 -1.033624 -0.093214 -5.428030 -10.060948 0.122083 -2.435620 -42.375115 5.997540 0.000000 0.000000 0.000000 1.676027 -1.128344 -0.279243 0.324500 -9.175611 -8.136298 -3.914202 -0.505367 -0.802220 -5.504171 -43.566474 -50.860748 174.958219 -75.094474 175.250373 0.000000 0.000000 0.000000 2.551869 -0.856605 -0.181211 -0.005162 -1.584959 9.870973 -5.232756 5.082315 -0.853272 -25.434796 -9.039089 44.880466 -179.151190 66.181596 177.480294 0.000000 0.000000 0.000000 
-2.594474 103.600304 0.724848 0.000000 0.000000 0.000000 4.657592 52.414827 -10.693952 -6.028488 2.513796 22.922832 42.152950 -6.463590 6.425388 -10.412967 6.832267 -14.230595 -5.300567 0.038760 -3.317599 0.000000 0.000000 0.000000 7.063511 50.862889 -11.811242 -41.093382 6.109536 -19.603956 20.381127 8.278246 -2.113044 9.361278 12.566206 16.629596 -9.398449 0.344179 0.230396 0.000000 0.000000 0.000000 5.530639 51.436396 -8.583209 -0.064775 -3.116819 -1.210166 2.429547 -0.758038 -0.162912 1.565013 -0.352310 0.129311 0.000000 0.000000 0.000000 2.650419 -0.814371 -0.188636 -5.068237 -9.540766 0.391918 -1.532195 -40.867672 6.035480 0.000000 0.000000 0.000000 1.913205 -0.938169 -0.223416 0.339064 -9.284111 -6.733770 -3.362988 -1.444064 -0.392709 -9.409753 -43.334149 -50.082355 177.442249 -72.712370 177.690923 0.000000 0.000000 0.000000 2.695550 -0.730836 -0.213722 0.089208 -1.318212 8.983615 -5.169566 3.760941 -0.684392 -27.326629 -7.644542 42.514601 -179.079992 65.226428 177.204409 0.000000 0.000000 0.000000 
-1.781757 111.814964 -1.771208 0.000000 0.000000 0.000000 4.054663 47.088093 -10.163824 -7.473300 0.972319 21.891608 38.497603 -4.557530 4.935864 0.855501 4.696324 -13.586298 -5.835827 0.135245 -4.668800 0.000000 0.000000 0.000000 6.303863 44.927560 -10.734063 -37.893343 3.070786 -17.847732 13.607108 8.428130 -1.267974 10.002597 12.974652 16.423654 -7.693893 0.541249 0.169478 0.000000 0.000000 0.000000 5.174046 45.520192 -8.063516 -0.244214 -2.713263 -0.514251 2.356385 -0.491920 -0.245473 1.370382 -0.227554 0.115242 0.000000 0.000000 0.000000 3.081243 -0.486086 -0.331102 -4.606994 -8.789291 0.681817 -0.416134 -38.038987 5.968487 0.000000 0.000000 0.000000 2.251812 -0.612212 -0.230369 0.315366 -8.988418 -5.234334 -2.483434 -1.641635 -0.755271 -13.205842 -42.164428 -48.947540 179.580304 -70.362860 179.621367 0.000000 0.000000 0.000000 2.894318 -0.489920 -0.369891 0.180829 -0.670207 7.949845 -4.712040 3.136952 0.012888 -28.982128 -4.712137 39.713551 -178.466368 64.647174 176.611425 0.000000 0.000000 0.000000 
